<svg width="1920" height="1080" xmlns="http://www.w3.org/2000/svg">

 <g>
  <title>Layer 1</title>
  <g stroke="null" id="svg_33">
   <path stroke="null" id="svg_3" fill="#faf2c8" d="m1670.65993,997.7975a9.09967,9.09967 0 0 0 0,-1.96212c-1.05215,-4.00243 -2.18961,-7.97643 -3.22754,-11.97886c-0.4692,-1.80571 -0.75357,-3.65408 -1.14457,-5.6162c0.55451,-0.04265 0.88864,-0.09953 1.22277,-0.09953c6.34844,0 12.68977,-0.11375 19.0311,0.05687a32.9934,32.9934 0 0 1 8.06884,1.173c7.78448,2.21804 12.13526,7.91244 12.35564,16.00262c0.14218,5.08302 0.04976,10.16603 0.06398,15.24194c0,6.33422 0.07109,12.66844 0.06398,18.99555c0,4.74889 -1.18722,9.13521 -4.30101,12.84617a12.53337,12.53337 0 0 1 -9.95276,4.72045c-5.48113,0 -10.96225,0 -16.44338,0l-1.42182,0c0.51897,-0.54029 0.76778,-1.04504 1.0948,-1.10191c0.95973,-0.17062 1.18722,-0.86731 1.28675,-1.59955a33.14269,33.14269 0 0 0 0.47631,-4.64936q0.05687,-23.34633 0,-46.67844a34.83466,34.83466 0 0 0 -0.51897,-4.76311a1.76306,1.76306 0 0 0 -1.46448,-1.74173c-0.27726,-0.04976 -0.4692,-0.54029 -0.88153,-1.04504l13.94097,0c-0.40522,0.49764 -0.61849,1.00239 -0.91708,1.06637c-1.0948,0.22038 -1.3223,1.03082 -1.42182,1.89102a40.21626,40.21626 0 0 0 -0.40522,4.78443c0,16.41494 0,32.837 -0.04265,49.25194c0,1.03082 0.31991,1.34362 1.31519,1.38628c3.79627,0.16351 6.51906,-1.62799 8.53094,-4.62092a14.76563,14.76563 0 0 0 2.74412,-8.22524c0.0782,-7.38637 0,-14.77985 0,-22.16622c0,-4.57116 0.08531,-9.14943 -0.05687,-13.72059a31.6711,31.6711 0 0 0 -0.93129,-6.57593a7.37215,7.37215 0 0 0 -5.68729,-5.50956a22.74916,22.74916 0 0 0 -4.74178,-0.71091c-3.32707,-0.11375 -6.65413,-0.06398 -9.95276,-0.07109c-2.53795,0 -3.80338,1.08059 -3.70385,3.60432c0.10664,2.68725 0.6256,5.36027 0.71091,8.04752a10.61391,10.61391 0 0 1 -0.61849,4.33656a3.86025,3.86025 0 0 1 -6.63991,0.91708c-0.61138,-0.71091 -0.97395,-1.64221 -0.44787,-2.48819a2.63037,2.63037 0 0 1 1.66353,-1.07348c1.0166,-0.1564 1.64221,0.55451 1.95501,1.50713a3.71807,3.71807 0 0 0 0.39811,0.56873z"/>
   <path stroke="null" id="svg_4" fill="#faf2c8" d="m1747.21797,1036.29335l-34.21617,0l-0.18484,-0.26304c0.29147,-0.29147 0.54029,-0.76778 0.87442,-0.83888a1.58533,1.58533 0 0 0 1.28675,-1.59955a39.01482,39.01482 0 0 0 0.44077,-4.53561q0.04265,-19.00266 0,-37.99821a34.83466,34.83466 0 0 0 -0.44787,-4.53561c-0.09953,-0.76068 -0.36256,-1.42182 -1.3223,-1.5569c-0.29858,-0.04976 -0.54029,-0.52607 -1.03082,-1.04504l26.30372,0c-0.51897,6.1636 -3.62565,11.73715 -4.17305,17.84388l0.38389,0.11375c0.14218,-0.24882 0.26304,-0.50475 0.41944,-0.71091a1.9479,1.9479 0 0 1 2.45975,-0.76068a2.01188,2.01188 0 0 1 0.99528,2.47397c-0.81044,2.43132 -4.26547,3.24176 -6.22758,1.42182c-1.57822,-1.46448 -1.8697,-3.40527 -1.72041,-5.39582c0.17773,-2.25359 0.53318,-4.49296 0.79622,-6.73944c0.04976,-0.42655 0.06398,-0.8602 0.07109,-1.28675c0,-2.84365 -1.05215,-3.96689 -3.94556,-3.98821l-4.15172,0l0,29.50282c1.79861,-0.27726 3.49768,-0.4692 5.16122,-0.82466c0.41233,-0.08531 0.71091,-0.71091 1.06637,-1.05926s0.56162,-0.59717 0.84598,-0.88864l0.27726,0.17062l0,8.38165c-0.50475,-0.44787 -1.00239,-0.71091 -1.06637,-0.99528a1.59244,1.59244 0 0 0 -1.49291,-1.27253c-1.53557,-0.25593 -3.07825,-0.44077 -4.756,-0.66826l0,13.98363l1.22988,0c3.48347,0 6.96693,-0.12796 10.4504,0a5.56644,5.56644 0 0 0 4.97638,-2.70146c1.93368,-2.80099 2.52374,-6.01431 2.84365,-9.31294c0,-0.3128 0,-0.6256 0,-0.9384c0.11375,-2.21804 1.42182,-3.17066 3.76783,-2.61615c-1.81993,6.14938 -1.33651,12.35564 0.08531,18.6401z"/>
   <path stroke="null" id="svg_5" fill="#faf2c8" d="m1814.75456,983.87785l25.93405,0c-0.28436,1.46448 -0.46209,2.84365 -0.81755,4.17305c-0.97395,3.65408 -2.06164,7.28684 -3.03559,10.94804a21.59749,21.59749 0 0 0 -0.36256,2.89341l0.36256,0.06398c0.0782,-0.1564 0.14929,-0.31991 0.2346,-0.47631c0.58295,-1.15879 1.7133,-1.59955 2.70146,-1.06637a2.06875,2.06875 0 0 1 0.71091,2.84365a3.96689,3.96689 0 0 1 -5.95033,1.10902a5.32473,5.32473 0 0 1 -1.80571,-4.41476c0.14218,-2.52374 0.54029,-5.04036 0.75357,-7.5641a12.1708,12.1708 0 0 0 -0.07109,-3.13512a2.65881,2.65881 0 0 0 -2.68725,-2.33179c-1.72041,-0.0782 -3.44081,0 -5.23231,0l0,29.4815c1.81282,-0.28436 3.55456,-0.51897 5.3034,-0.88153c0.35546,-0.07109 0.61849,-0.60427 0.90997,-0.93129s0.58295,-0.65404 0.87442,-0.98817l0.27726,0.17773l0,8.4243l-1.13746,-1.10191c-0.391,-0.37678 -0.71091,-0.98106 -1.20144,-1.08059c-1.62088,-0.35546 -3.28441,-0.54029 -5.03325,-0.81044l0,13.46466c2.43843,0 4.81998,0.10664 7.19442,0c1.58533,-0.09242 2.68725,-1.21566 3.55456,-2.47397a18.22777,18.22777 0 0 0 2.75834,-7.89112a15.18507,15.18507 0 0 0 0.28436,-3.03559c-0.20616,-2.93606 2.1825,-3.92423 4.86263,-3.24887c-5.63042,7.42191 -3.29152,13.99785 2.3389,20.34628l-32.2185,0c0.49764,-0.5474 0.74646,-1.06637 1.08769,-1.14457a1.59955,1.59955 0 0 0 1.27964,-1.61377a43.00303,43.00303 0 0 0 0.45498,-5.13278q0.06398,-18.34862 0,-36.71146a42.44141,42.44141 0 0 0 -0.43366,-4.97638c-0.09953,-0.79622 -0.29858,-1.62088 -1.42182,-1.76306c-0.28436,0 -0.50475,-0.53318 -0.76068,-0.82466l0.29147,-0.32702z"/>
   <path stroke="null" id="svg_6" fill="#faf2c8" d="m1867.45442,1001.91368c0.0782,-0.16351 0.16351,-0.32702 0.24882,-0.49053a1.99055,1.99055 0 0 1 2.63748,-1.05215a2.04032,2.04032 0 0 1 0.85309,2.84365a3.98821,3.98821 0 0 1 -7.03802,-0.08531a7.86268,7.86268 0 0 1 -0.57584,-4.91951c0.26304,-1.97633 0.59717,-3.93845 0.89575,-5.90767a8.63046,8.63046 0 0 0 0.08531,-1.05215c0.08531,-2.46686 -0.80333,-3.81759 -2.77966,-4.26547c-2.58772,-0.56873 -4.62092,0.24171 -5.38871,2.53084c-1.78439,5.35316 -1.50713,9.78214 2.72279,13.50732c2.23226,1.96212 4.56405,3.81049 6.80342,5.76549c3.44081,2.99294 6.10673,6.48351 6.85319,11.14709a17.60217,17.60217 0 0 1 -0.24171,7.20864c-1.3223,5.19676 -5.40293,8.59492 -11.14709,9.24185c-2.95739,0.34835 -5.8508,0.24882 -8.5807,-1.16589c-6.2418,-3.23465 -7.1731,-10.10916 -5.74416,-14.43861c1.02371,-3.10668 4.10196,-4.68491 6.8674,-3.55456a3.65408,3.65408 0 0 1 2.58061,3.32707c-2.51663,0.76068 -2.95028,2.84365 -2.98583,4.97638a11.26084,11.26084 0 0 0 0.87442,4.53561c1.30808,3.01426 4.77732,3.55456 7.19442,1.30808a10.16603,10.16603 0 0 0 3.02137,-6.44797c0.56162,-4.756 -0.71091,-8.92194 -4.26547,-12.24189c-1.50713,-1.42182 -3.1991,-2.63037 -4.79154,-3.95267a62.12655,62.12655 0 0 1 -4.81287,-4.18016c-3.65408,-3.71096 -4.26547,-8.23946 -2.93606,-13.05233c1.29386,-4.5996 4.70623,-7.05935 9.19208,-8.10439s9.02147,-0.66115 13.50732,0.20616c0.93129,0.17773 0.71091,0.782 0.60427,1.3223c-0.83888,3.32707 -1.72751,6.64702 -2.58061,9.95276c-0.47631,1.84837 -0.9384,3.70385 -1.35784,5.56644a6.63991,6.63991 0 0 0 0,1.42182l0.28436,0.04976z"/>
   <path stroke="null" id="svg_7" fill="#faf2c8" d="m1881.80772,1001.96344a12.41962,12.41962 0 0 0 -0.16351,-2.31046c-1.04504,-3.91712 -2.17539,-7.82003 -3.22043,-11.73715c-0.34124,-1.27253 -0.51897,-2.58061 -0.79622,-4.00243l33.1498,0a25.93405,25.93405 0 0 1 -0.42655,2.84365c-1.06637,3.99532 -2.21804,7.96932 -3.27019,11.97175a28.56442,28.56442 0 0 0 -0.45498,3.23465l0.36256,0.05687c0.05687,-0.07109 0.14929,-0.14218 0.17062,-0.22749c0.24882,-0.93129 0.83888,-1.61377 1.79861,-1.53557a2.72279,2.72279 0 0 1 1.72041,0.9384c0.59006,0.75357 0.28436,1.6351 -0.2346,2.38866a3.89579,3.89579 0 0 1 -6.70389,-0.43366a7.62808,7.62808 0 0 1 -0.83177,-3.57588c0,-2.09719 0.41233,-4.18727 0.60427,-6.29157a24.59043,24.59043 0 0 0 0.1564,-3.14934c-0.08531,-2.13273 -1.15879,-3.13512 -3.24176,-3.22043c-0.66115,0 -1.3223,0 -2.13273,0l0,1.28675c0,13.32959 0,26.65918 0,39.98877a38.21149,38.21149 0 0 0 0.50475,5.23942c0.11375,0.78911 0.36256,1.59244 1.42182,1.78439c0.29858,0.04976 0.52607,0.51897 1.02371,1.05215l-14.07605,0c0.51897,-0.53318 0.76068,-1.00239 1.08769,-1.07348a1.60666,1.60666 0 0 0 1.29386,-1.59244a35.80861,35.80861 0 0 0 0.43366,-4.42187c0.03555,-13.79879 0,-27.59758 0,-41.39637c0,-0.22749 0,-0.46209 -0.04265,-0.67537c-3.14934,-1.00239 -5.35316,0.49764 -5.23942,3.70385c0.08531,2.25359 0.60427,4.50007 0.71091,6.75366a17.77278,17.77278 0 0 1 -0.50475,5.17543a3.45503,3.45503 0 0 1 -3.32707,2.52374a3.8247,3.8247 0 0 1 -3.71096,-2.01188a1.94079,1.94079 0 1 1 3.41237,-1.76306a4.46452,4.46452 0 0 1 0.17773,0.51897l0.34835,-0.04265z"/>
   <path stroke="null" id="svg_8" fill="#faf2c8" d="m1767.46473,1036.30046l-14.09737,0c0.32702,-0.49764 0.48342,-1.02371 0.71091,-1.07348c1.12324,-0.2346 1.19433,-1.10191 1.12324,-1.89813c-0.2346,-2.48108 -0.4692,-4.97638 -0.88864,-7.42902q-2.48819,-14.54525 -5.09723,-29.07628c-0.55451,-3.07114 -1.20855,-6.12806 -1.94079,-9.15654c-0.28436,-1.16589 -0.57584,-2.48819 -2.13273,-2.76545c-0.26304,-0.04976 -0.46209,-0.51186 -0.85309,-0.98817l13.84144,0c-0.39811,0.50475 -0.59717,1.00239 -0.88864,1.07348a1.13746,1.13746 0 0 0 -0.95973,1.37917c0.21327,2.40288 0.36256,4.82709 0.76068,7.20153c1.67064,9.77503 3.41948,19.53585 5.13989,29.30377c0,0.11375 0.05687,0.22038 0.14218,0.55451a6.57593,6.57593 0 0 0 0.32702,-0.81044q3.68252,-15.93152 7.31528,-31.84172a26.14021,26.14021 0 0 0 0.49764,-3.94556c0.05687,-0.79622 0.12796,-1.68486 -1.05926,-1.89102c-0.21327,-0.04265 -0.33413,-0.57584 -0.59006,-1.04504l10.74898,0c-0.41944,0.4692 -0.65404,0.99528 -0.95262,1.03793c-1.31519,0.17773 -1.74173,1.19433 -2.04742,2.16828c-0.75357,2.37444 -1.45737,4.77732 -2.0261,7.20864q-4.15883,17.66615 -8.21103,35.36073a20.49558,20.49558 0 0 0 -0.41233,3.36972c-0.04976,0.89575 -0.24882,1.91946 1.08059,2.23937c0.21327,0.04976 0.29147,0.59717 0.4692,1.02371z"/>
   <path stroke="null" id="svg_9" fill="#faf2c8" d="m1794.92013,1016.31674c1.42182,-0.14929 2.78677,-0.24171 4.09485,-0.44077c0.98817,-0.14929 2.04742,-0.28436 2.28203,-1.61377c0.04265,-0.24882 0.55451,-0.41233 1.00239,-0.71091l0,8.63046l-1.10902,-0.98817c-0.44787,-0.41233 -0.83888,-1.08769 -1.35784,-1.20855c-1.57822,-0.36256 -3.20621,-0.51186 -4.97638,-0.77489c0,0.81044 0,1.38628 0,1.95501c0.14218,3.9811 0.27015,7.9551 0.46209,11.92909c0.04265,0.98817 0.31991,1.92657 1.56401,2.13273c0.26304,0.04976 0.43366,0.52607 0.81044,1.00949l-13.9623,0c0.4692,-0.51186 0.71091,-1.00239 1.00949,-1.05926c1.05215,-0.19906 1.28675,-0.97395 1.42182,-1.7915a43.62152,43.62152 0 0 0 0.41233,-4.89818q0.04976,-18.4055 0,-36.8181a42.00065,42.00065 0 0 0 -0.40522,-4.89818c-0.10664,-0.83888 -0.29147,-1.70619 -1.42182,-1.85548c-0.27726,0 -0.49764,-0.5474 -0.92418,-1.05215l26.30372,0c-0.27015,1.42182 -0.43366,2.77966 -0.782,4.07352c-0.98106,3.69674 -2.06875,7.36504 -3.0427,11.06889a21.37,21.37 0 0 0 -0.36967,3.07825a3.39816,3.39816 0 0 0 0.43366,-0.24171c0.34835,-1.00949 0.97395,-1.81993 2.13273,-1.62088a2.50952,2.50952 0 0 1 1.59955,1.13746c0.51897,1.00949 0,1.96922 -0.71091,2.75123a4.03087,4.03087 0 0 1 -6.4764,-1.27253c-0.83177,-1.68486 -0.78911,-3.48347 -0.59006,-5.28207s0.47631,-3.47636 0.71091,-5.21809a8.6589,8.6589 0 0 0 0.09953,-1.04504c0.12085,-3.33417 -0.95973,-4.45031 -4.31523,-4.45031l-3.89579,0l0,29.47439z"/>
   <path stroke="null" id="svg_10" fill="#faf2c8" d="m1737.42161,1068l-2.7299,0l-3.76783,-11.467l0,9.56176s0,1.59244 0.37678,1.59244a0.28436,0.28436 0 0 1 0.28436,0.3128l-2.64459,0a0.27015,0.27015 0 0 1 0.29147,-0.3128c0.32702,0 0.34835,-1.47159 0.34835,-1.59244l0,-11.71582c0,-0.12085 0,-1.59244 -0.34835,-1.59244a0.27015,0.27015 0 0 1 -0.29147,-0.3128l2.75123,0l3.00005,9.14943l0,-7.24419c0,-0.12085 -0.04265,-1.59244 -0.36967,-1.59244a0.27015,0.27015 0 0 1 -0.29147,-0.3128l3.39105,0a0.27015,0.27015 0 0 1 -0.28436,0.3128c-0.33413,0 -0.35546,1.47159 -0.35546,1.59244l0,11.75847c0,0.24882 0.04265,1.54979 0.35546,1.54979a0.27015,0.27015 0 0 1 0.28436,0.3128z"/>
   <path stroke="null" id="svg_11" fill="#faf2c8" d="m1750.77253,1066.87676l-3.37683,0a0.22038,0.22038 0 0 1 0.22749,-0.30569c0.33413,0 0.10664,-1.51424 0.08531,-1.59244l-0.22749,-1.28675c-2.31757,-0.78911 -2.97872,0.66115 -3.14223,1.34362c-0.06398,0.3128 -0.29147,1.53557 0,1.53557a0.22038,0.22038 0 0 1 0.22749,0.30569l-2.6517,0a0.35546,0.35546 0 0 1 0.34835,-0.30569c0.35546,0 0.71091,-1.51424 0.74646,-1.59244l2.17539,-9.48356c0,-0.0782 0.34835,-1.59244 0,-1.59244s-0.20616,-0.3128 -0.20616,-0.3128l3.45503,0s0.10664,0.3128 -0.22749,0.3128s-0.08531,1.54979 -0.08531,1.59244l1.26542,7.10911c0.49764,-0.35546 0,-0.95262 0,-0.95262a1.15168,1.15168 0 0 1 0.24882,2.27492l0.18484,1.03793c0,0.03555 0.29147,1.59244 0.63982,1.59244a0.32702,0.32702 0 0 1 0.3128,0.31991zm-3.47636,-4.18016l-1.05926,-5.97876l-1.42182,6.31289a3.6683,3.6683 0 0 1 2.48108,-0.33413z"/>
   <path stroke="null" id="svg_12" fill="#faf2c8" d="m1763.33433,1066.87676l-2.75123,0l-3.14934,-9.34848l0,7.45035s0,1.61377 0.37678,1.61377a0.27726,0.27726 0 0 1 0.28436,0.30569l-2.64459,0a0.26304,0.26304 0 0 1 0.28436,-0.30569c0.33413,0 0.35546,-1.47159 0.35546,-1.59244l0,-9.50489c0,-0.12085 0,-1.59244 -0.35546,-1.59244a0.27015,0.27015 0 0 1 -0.28436,-0.3128l2.75123,0l2.38155,7.10911l0,-5.19676c0,-0.12085 0,-1.59244 -0.35546,-1.59244a0.27015,0.27015 0 0 1 -0.28436,-0.3128l3.39105,0a0.27015,0.27015 0 0 1 -0.29147,0.3128c-0.32702,0 -0.36967,1.49291 -0.36967,1.59244l0,9.47645c0,0.0782 0.04265,1.59244 0.36967,1.59244a0.26304,0.26304 0 0 1 0.29147,0.30569z"/>
   <path stroke="null" id="svg_13" fill="#faf2c8" d="m1776.30847,1058.23208a0.93129,0.93129 0 0 1 -0.57584,0.71091a0.98106,0.98106 0 0 1 -1.03793,-0.18484c-1.27964,-1.18011 0.90997,-4.365 -1.0948,-4.40765l-0.47631,0l0,10.62813c0,0.0782 0.04265,1.59244 0.36967,1.59244a0.26304,0.26304 0 0 1 0.29147,0.30569l-3.39105,0a0.26304,0.26304 0 0 1 0.28436,-0.30569c0.33413,0 0.35546,-1.47159 0.35546,-1.59244l0,-10.62102l-0.45498,0c-2.01188,0.04265 0.16351,3.22754 -1.10191,4.40765a0.97395,0.97395 0 0 1 -1.03082,0.18484a0.90997,0.90997 0 0 1 -0.58295,-0.71091a0.48342,0.48342 0 0 1 0.47631,-0.49764a0.50475,0.50475 0 0 1 0.49764,0.49764s0,0 0,0.03555a0.28436,0.28436 0 0 0 0.14929,-0.32702c-0.06398,-0.93129 -1.03793,-3.33417 -1.03793,-4.35078l8.31766,0c0,1.0166 -0.96684,3.41948 -1.03082,4.35078a0.3128,0.3128 0 0 0 0.12085,0.32702l0,-0.03555a0.50475,0.50475 0 0 1 0.49764,-0.49764a0.48342,0.48342 0 0 1 0.45498,0.49053z"/>
   <path stroke="null" id="svg_14" fill="#faf2c8" d="m1787.52665,1066.87676l-6.70389,0a0.26304,0.26304 0 0 1 0.28436,-0.30569c0.33413,0 0.35546,-1.47159 0.35546,-1.59244l0,-9.48356c0,-0.12085 0,-1.59244 -0.35546,-1.59244a0.27015,0.27015 0 0 1 -0.28436,-0.3128l6.56171,0c0,1.0166 -0.97395,3.41948 -1.03793,4.35078a0.3128,0.3128 0 0 0 0.12085,0.32702l0,-0.03555a0.49053,0.49053 0 1 1 0.97395,0a0.82466,0.82466 0 0 1 -0.57584,0.71091a0.98106,0.98106 0 0 1 -1.03793,-0.18484c-1.27964,-1.18011 0.90997,-4.365 -1.0948,-4.40765l-1.18011,0l0,7.45035c0.20616,0 1.59244,-0.04265 1.59244,-0.36967a0.26304,0.26304 0 0 1 0.3128,-0.27015l0,2.06875a0.26304,0.26304 0 0 1 -0.3128,-0.27015c0,-0.32702 -1.42182,-0.36967 -1.59244,-0.36967l0,3.51901l1.11613,0c1.59244,-0.06398 1.90524,-2.6517 1.90524,-3.31285c0,-0.90997 0.95262,-0.66115 0.95262,-0.66115s-0.72513,1.76306 0,4.74178z"/>
   <path stroke="null" id="svg_15" fill="#faf2c8" d="m1798.88701,1063.5568c0,1.79861 -1.05215,3.41237 -3.66119,3.41237a2.95739,2.95739 0 0 1 -3.02137,-3.06403c0,-2.52374 2.52374,-2.21093 2.52374,-0.95262c-1.05926,0 -1.15879,3.0427 0.49764,3.0427c0.82466,0 1.57111,-1.11613 1.57111,-2.43843c0,-3.7465 -4.40765,-3.45503 -4.40765,-6.89584c0,-2.13273 1.42182,-3.00005 2.89341,-3.22754a9.09967,9.09967 0 0 1 3.1209,0.17062c0,1.0166 -0.97395,3.41948 -1.03793,4.35078a0.28436,0.28436 0 0 0 0.14929,0.32702s0,0 0,-0.03555a0.50475,0.50475 0 0 1 0.49764,-0.49764a0.48342,0.48342 0 0 1 0.47631,0.49764a0.79622,0.79622 0 0 1 -0.58295,0.71091a0.97395,0.97395 0 0 1 -1.03082,-0.18484c-1.28675,-1.18011 1.18011,-4.40765 -1.22277,-4.40765c-0.95262,0 -1.20144,0.93129 -1.20144,2.27492c0.00711,2.50241 4.43609,2.95739 4.43609,6.91717z"/>
   <path stroke="null" id="svg_16" fill="#faf2c8" d="m1819.3115,1063.25822s-0.71091,1.75595 0,4.74178l-7.22286,0c0,-4.08063 5.56644,-6.87451 5.56644,-11.467c0,-1.81993 -0.71091,-3.20621 -2.29624,-3.20621c-2.40288,0 -2.36023,2.54506 -1.42182,3.39105c0.37678,0.33413 1.26542,0.81044 1.86259,0.06398c0.90997,1.23699 -0.27015,1.88392 -0.95262,1.94079a2.84365,2.84365 0 0 1 -2.79388,-3.86736a3.64698,3.64698 0 0 1 3.51901,-2.38155c3.55456,0 4.10196,2.50241 4.10196,4.0593c0,4.38632 -4.80576,6.91006 -6.17071,9.9101l3.38394,0c1.25831,0 1.46448,-1.86259 1.46448,-2.52374c0.02844,-0.90997 0.95973,-0.66115 0.95973,-0.66115z"/>
   <path stroke="null" id="svg_17" fill="#faf2c8" d="m1831.97994,1060.23685c0,4.26547 -1.72041,7.76315 -3.85314,7.76315s-3.84603,-3.47636 -3.84603,-7.76315s1.7133,-7.76315 3.84603,-7.76315s3.85314,3.47636 3.85314,7.76315zm-2.09008,0c0,-3.66119 -0.78911,-6.64702 -1.76306,-6.64702s-1.75595,2.98583 -1.75595,6.64702s0.782,6.63991 1.75595,6.63991s1.76306,-2.97872 1.76306,-6.63991z"/>
   <path stroke="null" id="svg_18" fill="#faf2c8" d="m1844.47776,1063.25822s-0.71091,1.75595 0,4.74178l-7.22286,0c0,-4.08063 5.56644,-6.87451 5.56644,-11.467c0,-1.81993 -0.71091,-3.20621 -2.29624,-3.20621c-2.40288,0 -2.36023,2.54506 -1.42182,3.39105c0.36967,0.33413 1.26542,0.81044 1.86259,0.06398c0.90997,1.23699 -0.27015,1.88392 -0.95262,1.94079a2.84365,2.84365 0 0 1 -2.79388,-3.86736a3.64698,3.64698 0 0 1 3.55456,-2.38155c3.55456,0 4.09485,2.50241 4.09485,4.0593c0,4.38632 -4.79865,6.91006 -6.1636,9.9101l3.41237,0c1.26542,0 1.47159,-1.86259 1.47159,-2.52374c-0.04265,-0.90997 0.88864,-0.66115 0.88864,-0.66115z"/>
   <path stroke="null" id="svg_19" fill="#faf2c8" d="m1857.40924,1063.25822s-0.71091,1.75595 0,4.74178l-7.24419,0c0,-4.08063 5.56644,-6.87451 5.56644,-11.467c0,-1.81993 -0.71091,-3.20621 -2.29624,-3.20621c-2.39577,0 -2.36023,2.54506 -1.42182,3.39105c0.37678,0.33413 1.26542,0.81044 1.86259,0.06398c0.91708,1.23699 -0.26304,1.88392 -0.94551,1.94079a2.84365,2.84365 0 0 1 -2.80099,-3.86736a3.66119,3.66119 0 0 1 3.51901,-2.38155c3.55456,0 4.10196,2.50241 4.10196,4.0593c0,4.38632 -4.80576,6.91006 -6.17071,9.9101l3.41948,0c1.25831,0 1.46448,-1.86259 1.46448,-2.52374c-0.00711,-0.90997 0.94551,-0.66115 0.94551,-0.66115z"/>
   <path stroke="null" id="svg_20" fill="#edc04e" d="m1659.60525,1010.44461l-16.59267,-29.50282a3.1209,3.1209 0 0 0 -2.72279,-1.59955l-9.54043,0l-6.98826,0a3.14223,3.14223 0 0 0 -2.7299,4.70623l15.55474,27.01463a3.13512,3.13512 0 0 1 0,3.14934l-1.98344,3.40527l-13.79168,23.63069a3.14223,3.14223 0 0 0 2.70857,4.72045l7.27262,0l9.60441,0a3.14223,3.14223 0 0 0 2.71568,-1.5569l6.44086,-11.04756l0,0l5.95744,-10.10205l4.12329,-7.05224a5.79393,5.79393 0 0 0 -0.02844,-5.76549z"/>
   <polygon stroke="null" id="svg_21" fill="#587e86" points="1618.4079797879822,979.4133417113771 1631.012338122644,979.7047962907163 1655.2402539416798,1022.9850853778844 1649.3752349480637,1033.143993565609 1618.4079797879822,979.4133417113771 "/>
   <polygon stroke="null" id="svg_22" fill="#757341" points="1618.2159330456634,1045.6489006726624 1637.4603530561144,1013.0181371513027 1643.8087431996246,1023.9590305152742 1630.820464942677,1046.2318966125167 1618.2159330456634,1045.6489006726624 "/>
   <polygon stroke="null" id="svg_23" fill="#f6c966" points="1630.820464942677,1046.2318966125167 1643.8087431996246,1023.5680379271507 1649.3752349480637,1033.143993565609 1642.0528128859878,1045.8409474149812 1630.820464942677,1046.2318966125167 "/>
   <path stroke="null" id="svg_24" fill="#c14d32" d="m1631.0124,979.7048l9.09967,0a3.34839,3.34839 0 0 1 2.90052,1.68486l16.05238,28.18764a7.53566,7.53566 0 0 1 -0.18484,7.77026l-3.63987,5.68729l-24.22786,-43.33005z"/>
   <polygon stroke="null" id="svg_25" opacity="0.3" fill="#6f2b5a" points="1635.0717011888191,1016.8783374187333 1637.495933338243,1012.6199851161655 1649.5529627963551,1033.3928819781577 1635.0717011888191,1016.8783374187333 "/>
   <path stroke="null" id="svg_26" fill="#faf2c8" d="m1631.63089,979.83277l9.18498,0a1.7133,1.7133 0 0 1 1.4858,0.87442l16.85571,29.96492a5.3034,5.3034 0 0 1 0,5.25364l-3.64698,6.29867l-23.87951,-42.39165m-0.88153,-0.51897l24.76104,43.94854l4.12329,-7.05224a5.79393,5.79393 0 0 0 0,-5.76549l-17.04766,-30.2635a1.64221,1.64221 0 0 0 -1.42182,-0.83888l-10.40774,0l-0.00711,-0.02844z"/>
   <path stroke="null" id="svg_27" fill="#faf2c8" d="m1619.21127,979.79722l11.2324,0l24.44113,43.42958l-5.32473,9.11388l-5.31051,-9.14943l-6.30578,-10.82007l-18.73252,-32.57396m-0.88864,-0.51897l19.19461,33.34174l6.30578,10.86273l5.75127,9.9101l5.93611,-10.13049l-24.76104,-43.94854l-12.42673,0l0,-0.03555z"/>
   <path stroke="null" id="svg_28" fill="#faf2c8" d="m1643.80169,1024.50644l5.15411,8.88639l-7.05224,12.08549l-10.2158,0l11.18264,-19.33679l0.93129,-1.61377m0,-1.02371l-1.37917,2.37444l-11.63051,20.11168l11.37458,0l7.35082,-12.61157l-5.75127,-9.9101l0.03555,0.03555z"/>
   <path stroke="null" id="svg_29" fill="#faf2c8" d="m1616.588,984.64564l17.55951,30.56919l3.34839,-2.53084l-19.19461,-33.34174l-0.76778,0.58295a3.66119,3.66119 0 0 0 -0.94551,4.72045z"/>
   <path stroke="null" id="svg_30" fill="#faf2c8" d="m1630.79201,1045.96886l-12.72531,0l16.52869,-28.36536l2.90052,-4.97638l-3.31285,2.52374l-2.90052,4.97638l-15.16374,25.96248a1.59955,1.59955 0 0 0 1.37917,2.40288l9.95276,0l9.72527,0a5.01193,5.01193 0 0 0 3.02137,-1.00949l2.00477,-1.51424l-11.41013,0z"/>
   <path stroke="null" id="svg_31" fill="#faf2c8" d="m1637.49591,1013.64371l5.68729,9.83901l-1.22988,2.13273l-11.48122,19.85576l-11.50966,0l16.07371,-27.61891l2.45975,-4.2086m0,-1.02371l-2.90052,4.97638l-16.52869,28.36536l12.72531,0l11.63051,-20.08325l1.37917,-2.37444l-6.30578,-10.86273l0,-0.02133z"/>
   <path stroke="null" id="svg_32" fill="#faf2c8" d="m1659.60525,1010.44461l-17.01211,-30.25639a1.66353,1.66353 0 0 0 -1.42182,-0.84598l-10.40063,0l-12.42673,0l19.19461,33.34174l-2.90052,4.97638l-16.52869,28.36536l12.72531,0l11.37458,0l7.35082,-12.61157l0,0l5.95033,-10.15181l4.12329,-7.05224a5.79393,5.79393 0 0 0 -0.02844,-5.76549zm-0.45498,5.53089l-4.11618,7.05935l-5.92189,10.10916l-6.85319,11.74426a1.20144,1.20144 0 0 1 -1.03793,0.59717l-10.41485,0l-10.57125,0a0.71091,0.71091 0 0 1 -0.6256,-1.12324l15.441,-26.48856l2.90052,-4.97638l0.14929,-0.25593l-0.14929,-0.27015l-18.28464,-31.75641a0.47631,0.47631 0 0 1 0.36967,-0.75357l10.72054,0l9.95276,0a1.85548,1.85548 0 0 1 1.60666,0.9384l16.80595,29.85828a5.28918,5.28918 0 0 1 0.02844,5.31762z"/>
  </g>
 </g>
</svg>