<svg width="1920" height="1080" xmlns="http://www.w3.org/2000/svg">

 <g>
  <title>Layer 1</title>
  <g id="svg_1">
   <path id="svg_2" d="m1556.9397,953.25999a12.91,12.91 0 0 0 0,-2.77c-1.48,-5.62 -3.09,-11.21 -4.54,-16.84c-0.66,-2.54 -1.06,-5.14 -1.62,-7.9c0.79,-0.07 1.26,-0.14 1.73,-0.14c8.92,0 17.85,-0.16 26.77,0.08a46.33,46.33 0 0 1 11.36,1.65c11,3.11 17.08,11.13 17.39,22.51c0.19,7.14 0.06,14.29 0.09,21.44c0,8.91 0.1,17.82 0.09,26.72c0,6.68 -1.67,12.85 -6.05,18.07a17.64,17.64 0 0 1 -14,6.64c-7.71,0 -15.43,0 -23.14,0l-2,0c0.73,-0.77 1.08,-1.47 1.55,-1.56c1.27,-0.23 1.6,-1.23 1.74,-2.23a46.62,46.62 0 0 0 0.67,-6.54q0.08,-32.83 0,-65.66a47.47,47.47 0 0 0 -0.72,-6.7a2.48,2.48 0 0 0 -2.06,-2.45c-0.39,-0.07 -0.67,-0.76 -1.24,-1.47l19.61,0c-0.58,0.7 -0.87,1.41 -1.29,1.5c-1.54,0.31 -1.86,1.45 -2,2.66a58.35,58.35 0 0 0 -0.56,6.73c0,23.09 0,46.19 -0.06,69.28c0,1.45 0.45,1.88 1.84,2c5.35,0.23 9.18,-2.3 12.06,-6.5a20.85,20.85 0 0 0 3.86,-11.57c0.11,-10.39 0,-20.79 0,-31.18c0,-6.43 0.13,-12.87 -0.07,-19.3a44.47,44.47 0 0 0 -1.32,-9.25a10.34,10.34 0 0 0 -8,-7.75a32.05,32.05 0 0 0 -6.67,-1c-4.68,-0.16 -9.36,-0.09 -14,-0.11c-3.57,0 -5.34,1.53 -5.2,5.08c0.15,3.78 0.87,7.53 1,11.31a15.12,15.12 0 0 1 -0.87,6.11a5.43,5.43 0 0 1 -9.34,1.29c-0.86,-1.06 -1.37,-2.31 -0.64,-3.5a3.75,3.75 0 0 1 2.29,-1.54c1.43,-0.22 2.31,0.78 2.75,2.12c0.02,0.11 0.16,0.22 0.59,0.77z"/>
   <path id="svg_3" d="m1664.6897,1007.39999l-48.2,0l-0.25,-0.36c0.4,-0.41 0.76,-1.08 1.23,-1.18a2.23,2.23 0 0 0 1.8,-2.25a51,51 0 0 0 0.62,-6.39q0.08,-26.72 0,-53.44a51,51 0 0 0 -0.63,-6.39c-0.14,-1.06 -0.52,-2 -1.86,-2.18c-0.43,-0.07 -0.76,-0.74 -1.46,-1.47l37,0c-0.73,8.67 -5.09,16.51 -5.86,25.09l0.54,0.16c0.19,-0.34 0.37,-0.7 0.59,-1a2.75,2.75 0 0 1 3.48,-1.06a2.83,2.83 0 0 1 1.39,3.49c-1.14,3.42 -6,4.56 -8.76,2c-2.22,-2.07 -2.62,-4.79 -2.41,-7.59c0.24,-3.17 0.74,-6.32 1.11,-9.48a15.69,15.69 0 0 0 0.1,-1.81c0,-4 -1.48,-5.59 -5.54,-5.61l-5.84,0l0,41.48c2.53,-0.38 4.92,-0.65 7.26,-1.15c0.58,-0.13 1,-1 1.5,-1.49l1.19,-1.25l0.39,0.24l0,11.79c-0.7,-0.63 -1.4,-0.95 -1.5,-1.4a2.22,2.22 0 0 0 -2.1,-1.79c-2.15,-0.36 -4.33,-0.62 -6.69,-0.94l0,19.67l1.73,0c4.9,0 9.81,-0.18 14.71,0a7.79,7.79 0 0 0 7,-3.79c2.72,-3.94 3.55,-8.46 4,-13.1c0,-0.44 0,-0.88 0,-1.32c0.15,-3.12 2,-4.46 5.29,-3.68c-2.58,8.64 -1.91,17.37 0.17,26.2z"/>
   <path id="svg_4" d="m1759.5697,933.67999l36.48,0c-0.39,2.05 -0.64,4 -1.14,5.86c-1.38,5.15 -2.9,10.26 -4.27,15.4a29.16,29.16 0 0 0 -0.51,4.08l0.51,0.09c0.11,-0.23 0.21,-0.45 0.32,-0.67c0.83,-1.63 2.42,-2.25 3.81,-1.5a2.92,2.92 0 0 1 1,4a5.58,5.58 0 0 1 -8.37,1.56a7.43,7.43 0 0 1 -2.54,-6.21c0.19,-3.55 0.76,-7.09 1.06,-10.64a18.05,18.05 0 0 0 -0.1,-4.41a3.74,3.74 0 0 0 -3.79,-3.28c-2.41,-0.11 -4.83,0 -7.36,0l0,41.47c2.56,-0.41 5,-0.74 7.47,-1.24c0.5,-0.1 0.86,-0.85 1.28,-1.31l1.27,-1.39l0.38,0.25l0,11.85l-1.59,-1.55c-0.56,-0.53 -1.05,-1.38 -1.69,-1.52c-2.29,-0.51 -4.62,-0.77 -7.09,-1.14l0,18.94c3.43,0 6.79,0.15 10.13,0c2.23,-0.13 3.77,-1.71 5,-3.49a25.6,25.6 0 0 0 3.86,-11.15a21.18,21.18 0 0 0 0.39,-4.26c-0.29,-4.13 3.08,-5.52 6.85,-4.57c-7.92,10.44 -4.63,19.69 3.29,28.62l-45.3,0c0.71,-0.77 1.06,-1.51 1.54,-1.61a2.25,2.25 0 0 0 1.79,-2.27a60.51,60.51 0 0 0 0.65,-7.22q0.07,-25.81 0,-51.64a57.65,57.65 0 0 0 -0.61,-7c-0.14,-1.13 -0.41,-2.28 -2,-2.48c-0.4,0 -0.72,-0.75 -1.07,-1.16l0.35,-0.41z"/>
   <path id="svg_5" d="m1833.7497,959.04999c0.12,-0.23 0.23,-0.46 0.36,-0.69a2.81,2.81 0 0 1 3.71,-1.49a2.9,2.9 0 0 1 1.2,4a5.61,5.61 0 0 1 -9.9,-0.12a11.1,11.1 0 0 1 -0.82,-6.93c0.38,-2.77 0.85,-5.53 1.26,-8.3a12.32,12.32 0 0 0 0.13,-1.48c0.12,-3.47 -1.13,-5.37 -3.92,-6c-3.63,-0.81 -6.5,0.34 -7.57,3.56c-2.51,7.53 -2.13,13.76 3.82,19c3.14,2.76 6.42,5.36 9.58,8.11c4.84,4.21 8.59,9.12 9.64,15.68a24.76,24.76 0 0 1 -0.34,10.14c-1.86,7.31 -7.61,12.08 -15.68,13c-4.17,0.49 -8.24,0.35 -12.08,-1.64c-8.77,-4.55 -10.08,-14.23 -8.07,-20.31c1.44,-4.37 5.76,-6.59 9.66,-5.05a5.15,5.15 0 0 1 3.63,4.69c-3.54,1.07 -4.15,4 -4.2,7a16,16 0 0 0 1.22,6.37c1.84,4.25 6.73,5.06 10.12,1.85a14.27,14.27 0 0 0 4.25,-9.07c0.79,-6.69 -1,-12.55 -6,-17.22c-2.12,-2 -4.5,-3.7 -6.74,-5.57s-4.7,-3.66 -6.77,-5.76c-5.14,-5.22 -6,-11.59 -4.13,-18.36c1.83,-6.53 6.58,-9.97 12.94,-11.44s12.69,-0.92 19,0.3c1.32,0.25 1.05,1.1 0.86,1.86c-1.19,4.68 -2.43,9.35 -3.63,14c-0.67,2.61 -1.32,5.22 -1.91,7.84a8.72,8.72 0 0 0 0,2l0.38,0.03z"/>
   <path id="svg_6" d="m1853.9497,959.11999a16.65,16.65 0 0 0 -0.24,-3.25c-1.46,-5.52 -3,-11 -4.52,-16.52c-0.48,-1.78 -0.73,-3.62 -1.12,-5.63l46.62,0a36.3,36.3 0 0 1 -0.61,4c-1.49,5.62 -3.11,11.21 -4.59,16.84a36.1,36.1 0 0 0 -0.64,4.55l0.5,0.08c0.08,-0.11 0.21,-0.2 0.24,-0.32c0.35,-1.31 1.19,-2.28 2.54,-2.16a3.82,3.82 0 0 1 2.41,1.31c0.84,1.07 0.41,2.31 -0.33,3.37a5.48,5.48 0 0 1 -9.43,-0.61a11,11 0 0 1 -1.09,-5.05c0.05,-2.95 0.58,-5.9 0.86,-8.85a32.93,32.93 0 0 0 0.21,-4.44c-0.12,-3 -1.62,-4.4 -4.55,-4.52c-0.93,0 -1.86,0 -3,0l0,1.85q0,28.13 0,56.25a53.92,53.92 0 0 0 0.72,7.37c0.15,1.11 0.51,2.24 2,2.5c0.42,0.08 0.73,0.73 1.44,1.48l-19.8,0c0.72,-0.74 1.06,-1.4 1.53,-1.5a2.24,2.24 0 0 0 1.81,-2.24a52.4,52.4 0 0 0 0.62,-6.22q0.08,-29.11 0,-58.23c0,-0.33 0,-0.65 -0.05,-1c-4.43,-1.4 -7.53,0.71 -7.37,5.21c0.11,3.18 0.85,6.33 1,9.51a25.41,25.41 0 0 1 -0.71,7.28a4.87,4.87 0 0 1 -4.71,3.54a5.41,5.41 0 0 1 -5.3,-2.79a2.73,2.73 0 1 1 4.81,-2.48c0.1,0.23 0.16,0.49 0.24,0.73l0.51,-0.06z"/>
   <path id="svg_7" d="m1693.1097,1007.41999l-19.84,0c0.47,-0.7 0.68,-1.44 1,-1.51c1.58,-0.34 1.69,-1.55 1.58,-2.67c-0.32,-3.49 -0.65,-7 -1.24,-10.45q-3.5,-20.47 -7.17,-40.9q-1.17,-6.48 -2.74,-12.89c-0.39,-1.63 -0.8,-3.49 -3,-3.88c-0.38,-0.07 -0.65,-0.73 -1.21,-1.4l19.48,0c-0.56,0.71 -0.84,1.42 -1.25,1.51a1.62,1.62 0 0 0 -1.36,1.95c0.3,3.38 0.51,6.78 1.08,10.12c2.34,13.76 4.81,27.49 7.23,41.23c0,0.16 0.08,0.31 0.19,0.78a10.44,10.44 0 0 0 0.47,-1.14q5.19,-22.39 10.36,-44.79a38.1,38.1 0 0 0 0.7,-5.55c0.08,-1.12 0.17,-2.37 -1.49,-2.67c-0.3,-0.05 -0.48,-0.8 -0.83,-1.46l15.12,0c-0.59,0.66 -0.92,1.4 -1.35,1.46c-1.85,0.25 -2.44,1.68 -2.87,3c-1.07,3.34 -2.06,6.72 -2.86,10.14q-5.83,24.86 -11.55,49.74a29.94,29.94 0 0 0 -0.57,4.74c-0.08,1.26 -0.36,2.7 1.51,3.15c0.24,0.12 0.35,0.89 0.61,1.49z"/>
   <path id="svg_8" d="m1731.6897,979.29999c2,-0.21 3.91,-0.33 5.75,-0.61c1.4,-0.22 2.88,-0.4 3.22,-2.28c0.06,-0.34 0.78,-0.57 1.41,-1l0,12.15c-0.7,-0.63 -1.14,-1 -1.56,-1.39c-0.64,-0.59 -1.18,-1.53 -1.91,-1.7c-2.22,-0.51 -4.51,-0.73 -7,-1.09c0,1.14 0,1.94 0,2.75c0.2,5.59 0.37,11.19 0.64,16.78c0.07,1.39 0.45,2.71 2.21,3c0.36,0.07 0.61,0.74 1.13,1.42l-19.59,0c0.65,-0.72 1,-1.41 1.42,-1.49c1.48,-0.29 1.81,-1.38 1.94,-2.53a56.83,56.83 0 0 0 0.58,-6.88q0.07,-25.9 0,-51.79a57,57 0 0 0 -0.57,-6.89c-0.14,-1.19 -0.4,-2.4 -2,-2.61c-0.39,0 -0.69,-0.77 -1.29,-1.49l37,0c-0.38,2 -0.62,3.91 -1.1,5.74c-1.39,5.2 -2.91,10.36 -4.29,15.56a33.4,33.4 0 0 0 -0.52,4.33c0.53,-0.28 0.6,-0.3 0.62,-0.34c0.49,-1.42 1.37,-2.56 3,-2.28a3.52,3.52 0 0 1 2.24,1.61c0.73,1.42 0.05,2.77 -1,3.86a5.66,5.66 0 0 1 -9.11,-1.78c-1.22,-2.32 -1.22,-4.85 -0.91,-7.42s0.67,-4.89 1,-7.34a14.53,14.53 0 0 0 0.14,-1.48c0.17,-4.69 -1.35,-6.25 -6.07,-6.25l-5.38,0l0,41.44z"/>
   <path id="svg_9" fill="#1d1d1b" d="m1650.8497,1051.99999l-3.84,0l-5.32,-16.13l0,13.46s0,2.24 0.52,2.24a0.39,0.39 0 0 1 0.41,0.43l-3.73,0a0.38,0.38 0 0 1 0.41,-0.43c0.47,0 0.5,-2.07 0.5,-2.24l0,-16.48c0,-0.18 0,-2.24 -0.5,-2.24a0.38,0.38 0 0 1 -0.41,-0.44l3.88,0l4.22,12.87l0,-10.19c0,-0.18 -0.06,-2.24 -0.53,-2.24a0.38,0.38 0 0 1 -0.4,-0.44l4.77,0a0.38,0.38 0 0 1 -0.41,0.44c-0.46,0 -0.49,2.06 -0.49,2.24l0,16.53c0,0.35 0.06,2.19 0.49,2.19a0.37,0.37 0 0 1 0.43,0.43z"/>
   <path id="svg_10" fill="#1d1d1b" d="m1669.6297,1050.42999l-4.75,0a0.31,0.31 0 0 1 0.32,-0.43c0.47,0 0.15,-2.13 0.12,-2.25l-0.32,-1.8c-3.26,-1.11 -4.2,0.93 -4.43,1.89c-0.09,0.44 -0.41,2.16 0,2.16a0.3,0.3 0 0 1 0.32,0.43l-3.72,0a0.49,0.49 0 0 1 0.49,-0.43c0.5,0 1,-2.13 1.05,-2.25l3.06,-13.33c0,-0.12 0.49,-2.24 0,-2.24s-0.3,-0.44 -0.3,-0.44l4.87,0s0.14,0.44 -0.32,0.44s-0.12,2.18 -0.12,2.24l1.78,10c0.69,-0.49 0,-1.33 0,-1.33a1.62,1.62 0 0 1 0.35,3.2l0.26,1.45c0,0.06 0.41,2.25 0.9,2.25a0.46,0.46 0 0 1 0.44,0.44zm-4.89,-5.88l-1.49,-8.41l-2,8.88a5.19,5.19 0 0 1 3.49,-0.47z"/>
   <path id="svg_11" fill="#1d1d1b" d="m1687.2997,1050.42999l-3.88,0l-4.42,-13.16l0,10.45s0,2.28 0.52,2.28a0.39,0.39 0 0 1 0.41,0.43l-3.73,0a0.38,0.38 0 0 1 0.41,-0.43c0.47,0 0.5,-2.07 0.5,-2.25l0,-13.33c0,-0.17 0,-2.24 -0.5,-2.24a0.38,0.38 0 0 1 -0.41,-0.44l3.88,0l3.34,10l0,-7.31c0,-0.17 0,-2.24 -0.49,-2.24a0.38,0.38 0 0 1 -0.41,-0.44l4.78,0a0.38,0.38 0 0 1 -0.41,0.44c-0.47,0 -0.53,2.09 -0.53,2.24l0,13.33c0,0.12 0.06,2.25 0.53,2.25a0.38,0.38 0 0 1 0.41,0.42z"/>
   <path id="svg_12" fill="#1d1d1b" d="m1705.5497,1038.25999a1.3,1.3 0 0 1 -0.82,1a1.37,1.37 0 0 1 -1.45,-0.26c-1.81,-1.66 1.28,-6.14 -1.55,-6.2l-0.67,0l0,14.93c0,0.12 0.06,2.25 0.53,2.25a0.38,0.38 0 0 1 0.41,0.43l-4.78,0a0.37,0.37 0 0 1 0.41,-0.43c0.46,0 0.49,-2.07 0.49,-2.25l0,-14.91l-0.64,0c-2.82,0.06 0.24,4.54 -1.54,6.2a1.38,1.38 0 0 1 -1.46,0.26a1.29,1.29 0 0 1 -0.81,-1a0.68,0.68 0 0 1 0.67,-0.7a0.71,0.71 0 0 1 0.7,0.7s0,0 0,0.06a0.41,0.41 0 0 0 0.2,-0.46c-0.08,-1.32 -1.45,-4.69 -1.45,-6.12l11.7,0c0,1.43 -1.37,4.8 -1.45,6.12a0.43,0.43 0 0 0 0.17,0.46l0,-0.06a0.71,0.71 0 0 1 0.7,-0.7a0.68,0.68 0 0 1 0.64,0.68z"/>
   <path id="svg_13" fill="#1d1d1b" d="m1721.3297,1050.42999l-9.44,0a0.37,0.37 0 0 1 0.41,-0.43c0.47,0 0.5,-2.07 0.5,-2.25l0,-13.33c0,-0.17 0,-2.24 -0.5,-2.24a0.38,0.38 0 0 1 -0.41,-0.44l9.23,0c0,1.43 -1.37,4.8 -1.45,6.12a0.43,0.43 0 0 0 0.17,0.46l0,-0.06a0.69,0.69 0 1 1 1.37,0a1.15,1.15 0 0 1 -0.82,1a1.36,1.36 0 0 1 -1.45,-0.26c-1.81,-1.66 1.28,-6.14 -1.55,-6.2l-1.65,0l0,10.48c0.29,0 2.24,-0.06 2.24,-0.52a0.36,0.36 0 0 1 0.43,-0.38l0,2.91a0.36,0.36 0 0 1 -0.43,-0.38c0,-0.47 -1.95,-0.52 -2.24,-0.52l0,5l1.57,0c2.24,-0.09 2.68,-3.73 2.68,-4.66c0,-1.28 1.34,-0.93 1.34,-0.93s-1.02,2.44 0,6.63z"/>
   <path id="svg_14" fill="#1d1d1b" d="m1737.3097,1045.71999c0,2.53 -1.49,4.8 -5.16,4.8a4.16,4.16 0 0 1 -4.25,-4.31c0,-3.55 3.55,-3.11 3.55,-1.34c-1.48,0 -1.63,4.28 0.7,4.28c1.17,0 2.22,-1.57 2.22,-3.43c0,-5.27 -6.2,-4.87 -6.2,-9.7c0,-3 2,-4.22 4.07,-4.54a12.84,12.84 0 0 1 4.43,0.26c0,1.43 -1.37,4.8 -1.46,6.12a0.41,0.41 0 0 0 0.2,0.46s0,0 0,-0.06a0.72,0.72 0 0 1 0.7,-0.7a0.68,0.68 0 0 1 0.67,0.7a1.13,1.13 0 0 1 -0.81,1a1.38,1.38 0 0 1 -1.46,-0.26c-1.8,-1.66 1.66,-6.2 -1.72,-6.2c-1.33,0 -1.68,1.31 -1.68,3.2c-0.03,3.54 6.2,4.18 6.2,9.72z"/>
   <path id="svg_15" fill="#1d1d1b" d="m1766.0397,1045.33999s-1,2.47 0,6.66l-10.16,0c0,-5.73 7.83,-9.66 7.83,-16.13c0,-2.56 -1,-4.51 -3.23,-4.51c-3.38,0 -3.32,3.58 -2,4.78c0.52,0.46 1.78,1.13 2.62,0.08c1.28,1.75 -0.38,2.65 -1.34,2.74a4,4 0 0 1 -3.93,-5.44a5.13,5.13 0 0 1 4.95,-3.35c5,0 5.76,3.52 5.76,5.7c0,6.18 -6.75,9.73 -8.67,14l4.82,0c1.78,0 2.07,-2.62 2.07,-3.55c-0.07,-1.33 1.28,-0.98 1.28,-0.98z"/>
   <path id="svg_16" fill="#1d1d1b" d="m1783.8497,1041.08999c0,6 -2.41,10.91 -5.41,10.91s-5.42,-4.89 -5.42,-10.91s2.42,-10.92 5.42,-10.92s5.41,4.89 5.41,10.92zm-2.94,0c0,-5.16 -1.1,-9.35 -2.47,-9.35s-2.48,4.19 -2.48,9.35s1.11,9.34 2.48,9.34s2.47,-4.19 2.47,-9.34z"/>
   <path id="svg_17" fill="#1d1d1b" d="m1801.4397,1045.33999s-1,2.47 0,6.66l-10.16,0c0,-5.73 7.83,-9.66 7.83,-16.13c0,-2.56 -1,-4.51 -3.23,-4.51c-3.38,0 -3.32,3.58 -2,4.78c0.52,0.46 1.77,1.13 2.62,0.08c1.28,1.75 -0.38,2.65 -1.34,2.74a4,4 0 0 1 -3.93,-5.44a5.13,5.13 0 0 1 5,-3.35c5,0 5.76,3.52 5.76,5.7c0,6.18 -6.75,9.73 -8.67,14l4.8,0c1.78,0 2.07,-2.62 2.07,-3.55c-0.06,-1.33 1.25,-0.98 1.25,-0.98z"/>
   <path id="svg_18" fill="#1d1d1b" d="m1819.5997,1045.33999s-1,2.47 0,6.66l-10.16,0c0,-5.73 7.83,-9.66 7.83,-16.13c0,-2.56 -1,-4.51 -3.23,-4.51c-3.38,0 -3.32,3.58 -2,4.78c0.52,0.46 1.78,1.13 2.62,0.08c1.28,1.75 -0.38,2.65 -1.34,2.74a4,4 0 0 1 -3.93,-5.44a5.13,5.13 0 0 1 4.95,-3.35c5,0 5.76,3.52 5.76,5.7c0,6.18 -6.75,9.73 -8.67,14l4.8,0c1.78,0 2.07,-2.62 2.07,-3.55c-0.01,-1.33 1.3,-0.98 1.3,-0.98z"/>
   <path id="svg_19" fill="#edc04e" d="m1541.3897,971.03999l-23.34,-41.5a4.45,4.45 0 0 0 -3.84,-2.25l-13.42,0l-9.82,0a4.41,4.41 0 0 0 -3.84,6.55l21.88,38.09a4.44,4.44 0 0 1 0,4.43l-2.8,4.78l-19.39,33.24a4.42,4.42 0 0 0 3.81,6.64l10.23,0l13.5,0a4.43,4.43 0 0 0 3.83,-2.19l9.06,-15.5l0,0l8.33,-14.26l5.79,-9.91a8.2,8.2 0 0 0 0.02,-8.12z"/>
   <polygon id="svg_20" fill="#587e86" points="1483.439697265625,927.3999633789062 1501.169677734375,927.8099975585938 1535.23974609375,988.6900024414062 1526.999755859375,1002.97998046875 1483.439697265625,927.3999633789062 "/>
   <polygon id="svg_21" fill="#757341" points="1483.15966796875,1020.5699462890625 1510.23974609375,974.6699829101562 1519.169677734375,990.0599975585938 1500.8896484375,1021.3900146484375 1483.15966796875,1020.5699462890625 "/>
   <polygon id="svg_22" fill="#f6c966" points="1500.8896484375,1021.3900146484375 1519.169677734375,989.510009765625 1526.999755859375,1002.97998046875 1516.689697265625,1020.8399658203125 1500.8896484375,1021.3900146484375 "/>
   <path id="svg_23" fill="#c14d32" d="m1501.1697,927.80999l12.8,0a4.69,4.69 0 0 1 4.07,2.37l22.58,39.65a10.61,10.61 0 0 1 -0.25,10.9l-5.13,8l-34.07,-60.92z"/>
   <polygon id="svg_24" opacity="0.3" fill="#6f2b5a" points="1506.879638671875,980.0899658203125 1510.2796630859375,974.1099853515625 1527.249755859375,1003.3299560546875 1506.879638671875,980.0899658203125 "/>
   <path id="svg_25" d="m1502.0397,927.98999l12.92,0a2.4,2.4 0 0 1 2.09,1.23l23.71,42.18a7.46,7.46 0 0 1 0,7.39l-5.17,8.82l-33.55,-59.62m-1.25,-0.73l34.79,61.81l5.79,-9.91a8.2,8.2 0 0 0 0,-8.12l-23.92,-42.56a2.31,2.31 0 0 0 -2,-1.18l-14.64,0l-0.02,-0.04z"/>
   <path id="svg_26" d="m1484.5697,927.92999l15.8,0l34.37,61.14l-7.49,12.86l-7.47,-12.91l-8.87,-15.27l-26.34,-45.82m-1.26,-0.72l27,46.9l8.87,15.28l8.1,13.94l8.33,-14.26l-34.82,-61.81l-17.48,-0.05z"/>
   <path id="svg_27" d="m1519.1597,990.82999l7.25,12.5l-9.92,17l-14.38,0l15.73,-27.2l1.32,-2.27m0,-1.44l-1.94,3.31l-16.36,28.29l16,0l10.39,-17.69l-8.1,-13.94l0.01,0.03z"/>
   <path id="svg_28" d="m1480.8697,934.69999l24.71,43l4.7,-3.56l-27,-46.9l-1.05,0.79a5.15,5.15 0 0 0 -1.36,6.67z"/>
   <path id="svg_29" d="m1500.8597,1021.01999l-17.9,0l23.24,-39.92l4.08,-7l-4.7,3.56l-4.08,7l-21.28,36.53a2.25,2.25 0 0 0 1.94,3.38l14,0l13.69,0a7,7 0 0 0 4.25,-1.42l2.82,-2.13l-16.06,0z"/>
   <path id="svg_30" d="m1510.2797,975.54999l8,13.84l-1.73,3l-16.11,27.9l-16.22,0l22.61,-38.82l3.45,-5.92m0,-1.44l-4.08,7l-23.24,39.9l17.9,0l16.36,-28.28l1.93,-3.34l-8.87,-15.28z"/>
   <path id="svg_31" d="m1541.3897,971.03999l-23.94,-42.55a2.31,2.31 0 0 0 -2,-1.19l-14.63,0l-17.51,-0.09l27,46.9l-4.08,7l-23.27,39.9l17.9,0l16,0l10.39,-17.68l0,0l8.33,-14.26l5.79,-9.91a8.2,8.2 0 0 0 0.02,-8.12zm-0.64,7.79l-5.79,9.91l-8.33,14.24l-9.64,16.52a1.66,1.66 0 0 1 -1.46,0.83l-14.66,0l-14.87,0a1,1 0 0 1 -0.87,-1.53l21.71,-37.3l4.08,-7l0.21,-0.37l-0.2,-0.36l-25.73,-44.69a0.67,0.67 0 0 1 0.49,-1.05l15.08,0l14,0a2.61,2.61 0 0 1 2.34,1.4l23.65,42a7.47,7.47 0 0 1 -0.01,7.4z"/>
  </g>
 </g>
</svg>